<svg id="Слой_1" data-name="Слой 1" xmlns="http://www.w3.org/2000/svg" viewBox="0 0 1485 887.91177">
  <defs>
    <style>
      .cls-1 {
        fill: #c67942;
        opacity: 0.6;
      }

      .cls-2, .cls-3 {
        fill: none;
        stroke-miterlimit: 10;
        stroke-width: 3px;
      }

      .cls-2 {
        stroke: #c67942;
      }

      .cls-3 {
        stroke: #3c8c78;
      }
    </style>
  </defs>
  <g>
    <rect class="cls-1" x="150.67192" y="77.90986" width="1218.44241" height="709.89284"/>
    <circle class="cls-2" cx="1369.11433" cy="350.38413" r="45.16114"/>
    <polygon class="cls-3" points="1482.5 402.485 1482.5 168.196 1232.694 285.34 1482.5 402.485"/>
    <circle class="cls-2" cx="1369.11433" cy="787.8027" r="27.9627"/>
    <circle class="cls-2" cx="150.67192" cy="77.90986" r="27.9627"/>
    <polygon class="cls-2" points="496.54 850.032 588.596 850.032 542.568 751.88 496.54 850.032"/>
    <polygon class="cls-3" points="542.568 828.919 693.979 828.919 618.273 667.48 542.568 828.919"/>
    <polygon class="cls-3" points="136.035 759.796 136.035 815.809 195.757 787.803 136.035 759.796"/>
    <polygon class="cls-3" points="1387.458 49.904 1387.458 105.916 1327.736 77.91 1387.458 49.904"/>
    <circle class="cls-2" cx="482.93743" cy="77.90986" r="75.40986"/>
    <polygon class="cls-3" points="601.2 32.219 515.495 32.219 558.347 123.601 601.2 32.219"/>
    <polygon class="cls-2" points="895.151 761.299 845.436 761.299 870.294 814.306 895.151 761.299"/>
    <polygon class="cls-3" points="1392.289 630.582 1345.939 630.582 1369.114 581.162 1392.289 630.582"/>
    <polygon class="cls-2" points="175.529 665.686 125.815 665.686 150.672 718.694 175.529 665.686"/>
    <circle class="cls-3" cx="150.67192" cy="385.77946" r="148.17192"/>
    <circle class="cls-3" cx="975.68566" cy="787.8027" r="97.60907"/>
    <circle class="cls-3" cx="943.04163" cy="77.90986" r="12.22873"/>
    <polygon class="cls-2" points="1011.578 92.185 1061.293 92.185 1036.435 39.177 1011.578 92.185"/>
    <circle class="cls-3" cx="1269.93543" cy="787.8027" r="12.22873"/>
    <circle class="cls-2" cx="150.67192" cy="237.60754" r="12.22873"/>
    <circle class="cls-2" cx="1369.11433" cy="141.09098" r="12.22873"/>
    <polygon class="cls-3" points="1060.122 803.097 1060.122 772.508 1092.736 787.803 1060.122 803.097"/>
    <polygon class="cls-2" points="687.794 93.204 687.794 62.616 655.18 77.91 687.794 93.204"/>
  </g>
</svg>
